<svg width="32" height="32" viewBox="0 0 32 32" fill="none" xmlns="http://www.w3.org/2000/svg">
  <rect width="32" height="32" rx="8" fill="#10B981"/>
  <g transform="translate(16, 16)">
    <circle cx="0" cy="0" r="1.5" fill="white"/>
    <path d="M -9 -3 L -4 -3 L -4 -5 L 0 0 L -4 5 L -4 3 L -9 3 Z" fill="white" opacity="0.95"/>
    <path d="M 9 -3 L 4 -3 L 4 -5 L 0 0 L 4 5 L 4 3 L 9 3 Z" fill="white" opacity="0.85" transform="rotate(180 0 0)"/>
    <g transform="translate(-5, 6)">
      <rect x="0" y="2" width="2" height="3" fill="white" opacity="0.7" rx="0.5"/>
      <rect x="3" y="1" width="2" height="4" fill="white" opacity="0.8" rx="0.5"/>
      <rect x="6" y="1.5" width="2" height="3.5" fill="white" opacity="0.75" rx="0.5"/>
      <rect x="9" y="0" width="2" height="5" fill="white" opacity="0.85" rx="0.5"/>
    </g>
  </g>
</svg>